<svg width="17" height="16" viewBox="0 0 17 16" fill="none" xmlns="http://www.w3.org/2000/svg">
<path d="M0.00061212 5.70871C-0.0142199 6.82659 0.299624 7.92624 0.904399 8.87541C1.50917 9.82458 2.37913 10.5829 3.40964 11.059C4.44015 11.5352 5.58733 11.709 6.71322 11.5596C7.83912 11.4101 8.89578 10.9438 9.75613 10.2166L16.2339 16L16.959 15.2241L10.5097 9.45525C11.0982 8.73657 11.5029 7.88927 11.6903 6.98392C11.8776 6.07858 11.8421 5.14141 11.5867 4.25046C11.3313 3.35952 10.8634 2.5406 10.222 1.86191C9.58062 1.18323 8.78426 0.664425 7.89928 0.34872C7.0143 0.0330154 6.06632 -0.0704528 5.13431 0.0469346C4.20229 0.164322 3.31322 0.499166 2.54115 1.02358C1.76907 1.54799 1.13635 2.24678 0.695685 3.06175C0.255018 3.87672 0.0191621 4.78428 0.00776298 5.70883L0.00061212 5.70871ZM10.7269 5.88541C10.7108 7.14443 10.1869 8.34351 9.27032 9.21886C8.35375 10.0942 7.11965 10.5741 5.83949 10.553C4.55934 10.532 3.338 10.0116 2.44415 9.10641C1.55031 8.20124 1.05717 6.9854 1.07324 5.72638C1.08931 4.46736 1.61325 3.26828 2.52982 2.39293C3.44639 1.51758 4.68049 1.03766 5.96065 1.05875C7.2408 1.07984 8.46214 1.60021 9.35599 2.50538C10.2498 3.41056 10.743 4.62639 10.7269 5.88541Z" fill="black" fill-opacity="0.47"/>
</svg>
