<svg width="379" height="267" viewBox="0 0 379 267" fill="none" xmlns="http://www.w3.org/2000/svg">
<g clip-path="url(#clip0_3_100)">
<path d="M306.72 169.891C307.058 169.922 307.399 169.849 307.694 169.684C307.99 169.518 308.227 169.267 308.372 168.965C308.518 168.663 308.566 168.324 308.509 167.994C308.452 167.664 308.294 167.36 308.055 167.122C308.021 166.956 307.996 166.838 307.962 166.672C307.979 166.638 307.996 166.603 308.012 166.568C308.392 165.79 308.997 165.139 309.752 164.697C310.507 164.256 311.377 164.043 312.255 164.087C313.132 164.13 313.977 164.427 314.682 164.941C315.388 165.454 315.924 166.162 316.222 166.974C317.415 170.215 318.974 173.478 319.236 176.859C319.351 178.354 319.201 179.856 318.794 181.301C322.269 174.681 324.255 167.405 324.618 159.965C324.707 158.098 324.69 156.227 324.566 154.362C324.464 152.833 324.293 151.311 324.054 149.798C322.749 141.584 319.48 133.792 314.516 127.061C312.03 125.576 310.066 123.378 308.89 120.762C308.463 119.821 308.178 118.825 308.042 117.804C308.328 117.855 308.619 117.891 308.906 117.923C308.996 117.932 309.09 117.941 309.179 117.949L309.213 117.952C309.528 117.981 309.846 117.919 310.126 117.774C310.407 117.63 310.639 117.408 310.795 117.137C310.951 116.865 311.023 116.556 311.004 116.245C310.985 115.934 310.874 115.635 310.686 115.384C310.569 115.228 310.452 115.072 310.335 114.916C310.157 114.676 309.974 114.44 309.796 114.199C309.776 114.176 309.756 114.152 309.738 114.127C309.534 113.852 309.329 113.583 309.125 113.308C309.549 112.722 310.106 112.24 310.752 111.9C312.986 110.748 315.946 111.752 317.425 113.758C318.909 115.764 319.078 118.491 318.416 120.882C317.781 122.913 316.798 124.823 315.51 126.531C315.621 126.684 315.737 126.834 315.848 126.988C317.875 129.812 319.616 132.824 321.045 135.982C320.826 132.507 321.449 129.031 322.863 125.84C324.283 122.87 326.797 120.429 329.029 117.908C331.71 114.879 336.837 116.489 337.094 120.496C337.096 120.535 337.099 120.573 337.101 120.612C336.78 120.771 336.465 120.942 336.155 121.123C335.767 121.353 335.458 121.693 335.27 122.099C335.082 122.504 335.022 122.956 335.1 123.395C335.177 123.835 335.388 124.241 335.704 124.56C336.02 124.88 336.427 125.098 336.872 125.187L336.917 125.196C336.753 126.3 336.504 127.39 336.172 128.457C335.214 131.434 333.642 134.184 331.553 136.536C329.463 138.888 326.902 140.79 324.03 142.123C323.842 142.207 323.658 142.292 323.47 142.372C324.844 146.853 325.619 151.491 325.776 156.169C325.86 158.929 325.716 161.691 325.347 164.427L325.366 164.331C326.115 161.303 327.903 158.622 330.43 156.74C334.181 153.988 339.336 153.148 343.344 150.981C343.771 150.739 344.259 150.621 344.751 150.643C345.244 150.664 345.719 150.823 346.123 151.102C346.526 151.38 346.84 151.766 347.027 152.214C347.214 152.662 347.267 153.153 347.18 153.63C347.173 153.664 347.166 153.698 347.159 153.732C346.567 153.938 345.989 154.18 345.428 154.457C345.106 154.616 344.791 154.786 344.482 154.967C344.094 155.198 343.785 155.538 343.597 155.943C343.408 156.349 343.349 156.801 343.426 157.24C343.504 157.679 343.714 158.085 344.03 158.405C344.346 158.724 344.753 158.943 345.198 159.031L345.244 159.04C345.276 159.046 345.304 159.052 345.337 159.058C344.234 161.343 342.739 163.424 340.918 165.21C338.671 167.369 335.998 169.055 333.064 170.164C330.13 171.272 326.997 171.78 323.856 171.656L323.851 171.656C322.826 175.257 321.424 178.744 319.666 182.061L306.502 181.459C306.462 181.313 306.426 181.162 306.391 181.017C307.606 181.148 308.832 181.132 310.043 180.97C309.122 179.747 308.202 178.515 307.281 177.293C307.26 177.27 307.241 177.246 307.223 177.22C306.756 176.595 306.284 175.974 305.818 175.348L305.817 175.347C305.879 173.498 306.182 171.664 306.719 169.891L306.72 169.891Z" fill="#F2F2F2"/>
<path d="M41.4936 58.0041C41.1574 58.0555 40.8132 58.0041 40.5077 57.8568C40.2023 57.7095 39.9502 57.4734 39.7858 57.1806C39.6213 56.8878 39.5524 56.5524 39.5884 56.2198C39.6244 55.8872 39.7635 55.5735 39.9869 55.3212C40.0106 55.1543 40.0275 55.0343 40.0511 54.8674C40.0323 54.8336 40.0134 54.7999 39.9945 54.7661C39.5666 54.0122 38.9216 53.3993 38.1405 53.0045C37.3594 52.6097 36.477 52.4505 35.6042 52.5471C34.7314 52.6436 33.9071 52.9916 33.2348 53.5471C32.5625 54.1027 32.0722 54.8412 31.8255 55.6697C30.8391 58.977 29.4881 62.3287 29.4393 65.7192C29.4184 67.2179 29.6621 68.7087 30.1597 70.1254C26.2755 63.7297 23.8357 56.5878 23.0058 49.1839C22.7995 47.3258 22.6991 45.4578 22.705 43.5886C22.7112 42.0561 22.7859 40.5273 22.9291 39.002C23.7157 30.7248 26.4886 22.7492 31.0199 15.73C33.4083 14.0968 35.2299 11.7831 36.2394 9.10086C36.6059 8.1363 36.8284 7.12466 36.9 6.09743C36.6177 6.16498 36.3291 6.21917 36.0447 6.26824C35.956 6.28237 35.8626 6.29705 35.7739 6.31121L35.7404 6.3163C35.4272 6.36384 35.1066 6.32136 34.8174 6.19399C34.5281 6.06662 34.2825 5.85977 34.11 5.59836C33.9376 5.33695 33.8457 5.0321 33.8454 4.72054C33.8451 4.40898 33.9364 4.10398 34.1084 3.84226C34.2155 3.67943 34.3227 3.51667 34.43 3.35399C34.5923 3.10312 34.7597 2.85638 34.922 2.60555C34.9413 2.58131 34.9591 2.556 34.9754 2.52975C35.1623 2.24357 35.3497 1.96203 35.5366 1.67584C35.0757 1.11649 34.4897 0.669329 33.8241 0.369219C31.5216 -0.645515 28.6308 0.536846 27.2802 2.62866C25.9249 4.72095 25.9279 7.45267 26.7386 9.79907C27.5006 11.7879 28.6015 13.6348 29.994 15.2605C29.893 15.4208 29.7867 15.5769 29.6857 15.7372C27.84 18.6789 26.292 21.7913 25.0639 25.0298C25.0645 21.5488 24.2244 18.1173 22.6126 15.0177C21.0082 12.1399 18.3452 9.85649 15.9592 7.47546C13.0932 4.61549 8.07746 6.53365 8.07251 10.5481C8.07246 10.5869 8.07251 10.6258 8.07267 10.6646C8.40337 10.8041 8.72867 10.9549 9.04856 11.117C9.4507 11.3231 9.78011 11.6438 9.99365 12.0371C10.2072 12.4304 10.2949 12.878 10.2452 13.3211C10.1956 13.7642 10.0109 14.1823 9.71542 14.5205C9.41994 14.8587 9.02741 15.1012 8.58928 15.2164L8.54441 15.2282C8.77755 16.3202 9.09481 17.3931 9.49343 18.4378C10.6359 21.3511 12.3783 24.001 14.6115 26.2213C16.8447 28.4416 19.5204 30.1845 22.4709 31.3407C22.6642 31.4134 22.8529 31.4867 23.0457 31.5548C21.956 36.1112 21.4737 40.7875 21.6109 45.4662C21.7008 48.2255 22.0176 50.9732 22.5581 53.6823L22.5333 53.5869C21.5958 50.6104 19.6419 48.0431 17.0018 46.3186C13.0852 43.7998 7.88732 43.2739 3.75034 41.355C3.30934 41.139 2.81467 41.0513 2.32467 41.1025C1.83468 41.1537 1.36979 41.3416 0.984859 41.644C0.599924 41.9464 0.310987 42.3507 0.152131 42.8092C-0.00672496 43.2677 -0.028878 43.7613 0.0882877 44.2317C0.0972436 44.2651 0.106293 44.2985 0.11543 44.3319C0.71925 44.5016 1.31173 44.7081 1.88943 44.9502C2.22013 45.0897 2.54543 45.2405 2.86531 45.4025C3.26745 45.6087 3.59687 45.9294 3.8104 46.3227C4.02393 46.716 4.11161 47.1635 4.06197 47.6067C4.01232 48.0498 3.82766 48.4678 3.53218 48.806C3.23669 49.1442 2.84416 49.3868 2.40603 49.502L2.36113 49.5138C2.32878 49.5219 2.30111 49.5296 2.26881 49.5377C3.51333 51.7508 5.13611 53.7368 7.06607 55.4087C9.44512 57.428 12.2187 58.9483 15.2167 59.8765C18.2147 60.8047 21.3741 61.1212 24.5009 60.8066L24.5056 60.8061C25.7548 64.3386 27.374 67.7339 29.3373 70.9373L42.4375 69.5366C42.4687 69.3885 42.4946 69.2363 42.521 69.0887C41.3167 69.2933 40.0915 69.3521 38.8726 69.264C39.7149 67.9877 40.5561 66.7022 41.3983 65.426C41.4176 65.4018 41.4354 65.3765 41.4517 65.3502C41.8783 64.6975 42.3102 64.0489 42.7368 63.3962L42.737 63.3954C42.5597 61.5534 42.142 59.7415 41.494 58.0044L41.4936 58.0041Z" fill="#F2F2F2"/>
<path d="M222.485 53.2321C223.133 53.4074 223.735 53.7204 224.247 54.149C224.759 54.5775 225.169 55.1112 225.448 55.7125C225.728 56.3137 225.87 56.9679 225.864 57.6289C225.859 58.29 225.706 58.9418 225.416 59.5385L232.446 67.2211L228.739 72.5591L218.966 61.5727C217.979 61.0282 217.229 60.1465 216.858 59.0948C216.488 58.043 216.523 56.8943 216.957 55.8662C217.39 54.8381 218.193 54.0021 219.211 53.5166C220.23 53.0311 221.395 52.9299 222.485 53.2321Z" fill="#A0616A"/>
<path d="M288.298 72.0969C287.664 71.0829 286.833 70.2019 285.852 69.5044C284.871 68.8069 283.76 68.3066 282.582 68.0322C281.404 67.7578 280.182 67.7147 278.987 67.9054C277.792 68.0961 276.647 68.5168 275.618 69.1433L252.498 83.2185L227.559 62.3803L221.354 68.0591L248.905 103.196L284.713 84.8466C283.877 85.2748 289.308 73.7124 288.298 72.0969Z" fill="#CCCCCC"/>
<path d="M242.497 118.898C242.499 130.122 240.252 141.236 235.883 151.606C231.515 161.976 225.11 171.399 217.036 179.335C208.962 187.272 199.376 193.567 188.827 197.861C178.277 202.155 166.97 204.364 155.551 204.362C107.533 204.362 68.6056 166.098 68.6056 118.898C68.5973 109.716 70.0946 100.594 73.0399 91.8814C78.8223 74.8655 89.9001 60.067 104.707 49.5784C119.514 39.0897 137.3 33.4418 155.551 33.4333C171.292 33.4279 186.738 37.6242 200.242 45.5742C213.745 53.5243 224.799 64.9296 232.223 78.5727C234.064 81.9387 235.669 85.4239 237.029 89.0041C237.217 89.5026 237.401 90.0011 237.58 90.5044V90.5092C238.377 92.7217 239.079 94.9755 239.686 97.2704C241.558 104.332 242.503 111.6 242.497 118.898Z" fill="#3F3D56"/>
<path d="M146.039 61.2359C142.131 59.1589 137.793 57.9865 133.355 57.808C128.916 57.6295 124.495 58.4496 120.428 60.2059C116.848 61.7377 113.077 64.4856 111.883 69.4478C116.714 66.6451 122.968 71.0733 124.211 78.1769L123.921 78.2556C123.264 83.1758 124.73 88.5327 127.568 91.5836C127.94 88.4146 130.06 86.2578 132.145 84.9104C134.23 83.5632 136.537 82.5845 138.128 80.2686C140.015 77.5232 140.494 73.5107 141.244 69.8504C141.993 66.19 143.415 62.2558 146.039 61.2359Z" fill="white"/>
<path d="M118.995 103.106C117.657 105.081 115.87 106.32 114.267 107.863C112.668 109.411 111.146 111.5 110.827 114.183C110.624 115.902 110.938 117.649 110.895 119.387C110.852 121.124 110.262 123.081 109.059 123.513C107.161 124.187 105.712 120.721 103.761 120.479C102.21 120.289 100.814 122.687 101.263 124.766C101.713 126.846 103.823 127.767 105.036 126.409C106.132 128.218 105.359 131.499 103.712 132.054C103.538 133.194 103.365 134.329 103.195 135.468C99.0318 132.605 94.8246 129.695 91.284 125.502C87.3462 120.879 84.9038 115.204 84.2703 109.207C83.8115 104.388 84.4925 98.8752 82.2416 95.1671C80.4399 92.1995 77.3484 91.5443 74.5662 91.7295C74.059 91.7627 73.547 91.8197 73.0399 91.8814C74.6807 87.0373 76.7646 82.3492 79.2661 77.8747C79.8322 77.6359 80.3582 77.3141 80.8263 76.9204C83.4153 74.7601 84.565 70.3871 86.6662 67.3626C86.8014 67.1679 86.9415 66.978 87.0864 66.7929C89.2359 64.0342 92.1148 62.6146 94.897 61.2946C101.056 58.3556 107.393 55.3786 113.895 55.7869L112.045 55.9626C109.886 61.9071 107.725 67.8517 105.562 73.7962C105.234 74.7078 104.902 75.621 104.567 76.5358C103.34 79.9163 102.075 83.5154 102.263 87.2995C102.374 89.5406 103.166 91.9336 104.674 92.7028C106.079 93.415 107.615 92.5414 108.973 91.6772C109.547 91.3163 110.117 90.9555 110.692 90.5899C112.755 89.2842 115.039 87.9452 117.218 88.8189C119.213 89.6166 120.686 92.2802 120.966 95.1528C121.223 97.9451 120.53 100.742 118.995 103.106Z" fill="white"/>
<path d="M131.262 143.69C125.239 140.045 119.215 136.399 113.191 132.753L113.293 132.494C109.548 133.896 107.993 140.441 108.612 145.792C109.231 151.144 111.329 155.928 112.39 161.143C113.819 168.279 113.28 175.661 110.827 182.523C118.748 173.786 125.758 164.291 131.752 154.18C132.589 152.906 133.227 151.515 133.645 150.055C134.027 148.501 133.969 146.633 133.202 145.387C132.709 144.672 132.042 144.089 131.262 143.69Z" fill="white"/>
<path d="M107.488 77.3628C106.849 78.7765 106.602 80.6615 107.183 82.1243C107.776 83.6181 109.029 84.2933 110.183 84.8554L113.511 86.4771C114.619 87.0166 115.812 87.5616 116.941 87.1177C118.302 86.5823 119.246 84.4841 119.002 82.5363C118.742 80.4636 117.413 79.0379 116.184 77.8237C114.464 76.1247 112.743 74.4256 111.023 72.7265L110.054 73.8937C109.005 74.8991 108.138 76.0721 107.488 77.3628Z" fill="white"/>
<path d="M224.654 99.5209C226.151 99.8675 227.649 100.214 229.146 100.561C228.885 105.532 226.378 110.133 223.016 111.799C221.615 112.493 220.055 112.749 218.896 114.045C217.848 115.223 217.316 117.055 216.829 118.807C215.974 121.865 215.119 124.923 214.264 127.98C213.346 131.276 212.167 134.936 209.781 136.123C207.733 137.144 205.39 135.895 203.816 133.802C202.241 131.708 201.28 128.892 200.348 126.148C200.406 129.139 198.99 132.073 196.986 133.113C194.976 134.153 192.532 133.213 191.189 130.891C190.223 129.225 189.822 127.026 188.876 125.336C187.929 123.646 185.944 122.677 184.91 124.263C184.229 125.317 184.316 126.931 183.978 128.27C183.451 130.35 181.857 131.655 180.278 131.769C178.703 131.883 177.167 130.991 175.848 129.78C173.129 127.273 171.124 123.294 170.347 118.874C170.004 116.903 169.907 114.757 170.501 112.91C171.095 111.063 172.53 109.639 173.955 109.99C174.892 108.044 173.042 105.461 171.375 105.689C169.704 105.916 168.395 107.678 167.023 109.031C165.656 110.384 163.744 111.367 162.367 110.023C162.377 111.272 161.343 112.098 160.449 111.994C159.56 111.894 158.768 111.192 157.952 110.693C154.798 108.761 150.793 110.043 148.552 113.698C149.953 107.839 152.006 101.116 156.31 99.7393C158.068 99.1743 159.986 99.6396 161.647 98.6615C164.589 96.9285 165.183 90.3809 162.642 87.6793C162.966 90.2337 162.903 93.2155 161.531 94.9628C160.159 96.7101 157.281 95.5705 157.454 92.9876C157.058 94.7681 155.088 95.0388 154.179 93.6713C153.267 92.3039 153.344 90.0676 153.991 88.4342C154.638 86.8009 155.74 85.6282 156.807 84.5029C159.102 82.0862 161.43 79.6409 164.086 78.1215C166.748 76.6022 169.82 76.0894 172.486 77.5993C173.892 78.3969 175.129 79.7264 176.563 80.4291C177.998 81.1365 179.819 81.0464 180.77 79.394C181.838 77.5518 181.335 74.8169 181.732 72.5141C182.442 68.4451 186.581 66.5411 188.876 69.2285C187.161 68.7964 185.388 70.7906 185.176 73.2074C184.958 75.6241 186.2 78.0646 187.861 78.7958C190.653 80.0113 193.387 76.9535 195.498 74.1237C197.701 71.161 199.906 68.1998 202.116 65.2402C202.468 64.7363 202.864 64.2629 203.299 63.8253C203.991 63.1624 204.913 62.7828 205.879 62.7634C206.845 62.744 207.782 63.0863 208.501 63.7208C210.733 65.5108 211.781 69.1811 213.612 71.707C216.268 75.3772 220.244 76.2698 223.944 76.982C226.702 77.509 229.462 78.0392 232.223 78.5726C234.064 81.9387 235.669 85.4239 237.029 89.004C232.353 90.9555 228.04 94.6067 224.654 99.5209Z" fill="white"/>
<path d="M233.57 156.649C231.501 160.78 229.094 164.738 226.373 168.486C224.634 167.755 222.765 169.06 221.137 170.285C219.437 171.567 217.394 172.816 215.65 171.648C213.868 170.452 213.293 167.104 213.858 164.45C214.423 161.801 215.834 159.693 217.201 157.689C218.65 155.562 220.2 153.354 222.214 152.528C224.234 151.702 226.827 152.87 227.417 155.69L228.846 155.642C228.045 154.56 228.465 152.319 229.542 151.925C230.783 151.464 231.861 153.14 232.595 154.622C232.923 155.291 233.257 155.965 233.57 156.649Z" fill="white"/>
<path d="M178.811 136.594C175.738 136.784 173.304 133.065 171.686 129.407C170.069 125.748 168.593 121.564 165.82 119.702C164.235 118.638 162.429 118.492 160.71 117.976C158.992 117.461 157.193 116.394 156.371 114.221L154.422 113.447C151.847 114.87 149.239 116.319 147.02 118.635C144.532 121.233 142.982 124.563 142.61 128.112C142.237 131.948 143.612 136.225 146.182 137.666C148.212 138.804 150.576 138.087 152.633 139.129C155.202 140.431 156.728 144.214 157.305 147.949C157.883 151.684 157.736 155.566 158.149 159.343C158.562 163.12 159.701 167.051 162.058 168.987C165.006 171.409 169.333 169.396 170.656 164.987C171.305 162.824 171.283 160.383 171.768 158.138C172.623 154.184 174.929 151.25 176.759 148.007C178.588 144.763 180.028 140.358 178.811 136.594Z" fill="white"/>
<path d="M148.443 97.7401C148.73 97.9995 148.997 98.2785 149.244 98.5752C149.499 99.0072 149.629 99.4993 149.62 99.9986C149.611 100.498 149.464 100.985 149.195 101.408C149.565 101.388 149.927 101.292 150.257 101.127C150.588 100.962 150.88 100.731 151.115 100.449C151.676 99.8212 152.169 99.138 152.587 98.4104C152.901 97.908 153.234 97.2287 153.021 96.632C152.876 96.2247 152.533 96.0509 152.292 95.7447C151.911 95.2592 151.816 94.4881 151.619 93.8218C151.192 92.3826 150.171 91.3243 149.062 91.173L149.216 91.202C148.753 91.358 148.429 92.0811 148.532 92.7317C148.625 93.3242 149.012 93.8161 148.974 94.4203C148.918 95.2893 148.035 95.697 147.98 96.5661C147.972 97.0021 148.138 97.4238 148.443 97.7401Z" fill="white"/>
<path d="M143.178 82.9737C143.183 82.9724 143.187 82.9722 143.192 82.971C143.286 82.8864 143.374 82.7946 143.454 82.6965L143.178 82.9737Z" fill="#E6E6E6"/>
<path d="M144.1 87.0524C144.779 86.6229 145.159 85.4351 144.934 84.4409C144.711 83.4529 143.921 82.7886 143.192 82.971C142.98 83.1817 142.718 83.3361 142.429 83.4197C142.14 83.5033 141.835 83.5133 141.541 83.4488C141.09 83.3348 140.595 83.0412 140.205 83.3749C139.981 83.6241 139.825 83.9244 139.749 84.2483C139.605 84.6848 139.46 85.1213 139.316 85.5577C139.247 85.7139 139.229 85.8872 139.264 86.0539C139.292 86.1207 139.337 86.1793 139.394 86.2242C139.452 86.2691 139.52 86.2987 139.592 86.3101C140.46 86.5617 141.328 86.8132 142.196 87.0646C142.828 87.2479 143.511 87.4245 144.1 87.0524Z" fill="white"/>
<path d="M209.619 143.363C209.218 142.718 208.817 142.072 208.415 141.427C208.021 140.679 207.483 140.014 206.829 139.469C206.686 139.351 206.52 139.262 206.34 139.208C206.161 139.154 205.973 139.135 205.787 139.154C205.6 139.172 205.42 139.227 205.255 139.315C205.091 139.403 204.946 139.522 204.829 139.666L204.878 140.035C205.792 141.163 206.759 142.415 206.991 144.089C207.083 144.749 207.051 145.432 207.131 146.094C207.211 146.757 207.439 147.444 207.875 147.73C208.506 148.145 209.248 147.533 209.698 146.787C210.1 146.174 210.28 145.446 210.21 144.72C210.109 144.233 209.908 143.771 209.619 143.363Z" fill="white"/>
<path d="M227.474 118.706C227.59 117.958 227.706 117.21 227.822 116.462C228.01 115.641 228.033 114.791 227.891 113.961C227.858 113.779 227.789 113.606 227.688 113.452C227.586 113.297 227.454 113.163 227.3 113.06C227.145 112.956 226.971 112.883 226.787 112.846C226.604 112.809 226.415 112.809 226.231 112.845L226.027 113.158C225.988 114.6 225.907 116.171 224.988 117.598C224.626 118.161 224.154 118.663 223.781 119.221C223.408 119.778 223.133 120.449 223.278 120.943C223.49 121.66 224.458 121.661 225.291 121.375C226 121.16 226.615 120.718 227.037 120.118C227.279 119.681 227.428 119.201 227.474 118.706Z" fill="#E6E6E6"/>
<path d="M215.912 144.204C216.108 143.649 215.825 143.014 215.765 142.401C215.737 141.61 215.95 140.828 216.378 140.158C216.803 139.525 217.125 138.831 217.333 138.101C217.42 137.768 217.404 137.417 217.287 137.093C217.154 136.8 216.832 136.666 216.648 136.899L217.043 137.149C216.51 137.055 215.962 137.081 215.44 137.225C215.143 137.337 214.877 137.517 214.666 137.752C214.454 137.986 214.304 138.267 214.226 138.57C214.161 139.044 214.054 139.511 213.908 139.966C213.672 140.442 213.216 140.601 212.93 141.018C212.734 141.389 212.636 141.801 212.643 142.218C212.65 142.635 212.762 143.044 212.97 143.407C213.33 144.002 213.902 144.444 214.575 144.648C215.057 144.818 215.692 144.827 215.912 144.204Z" fill="white"/>
<path d="M227.12 147.527C227.294 147.973 227.528 148.395 227.814 148.78C228.351 149.312 229.08 148.985 229.731 148.856C230.322 148.764 230.926 148.831 231.481 149.05C232.036 149.269 232.521 149.631 232.883 150.099C232.631 148.861 232.08 147.702 231.277 146.717C230.474 145.732 229.442 144.951 228.268 144.439C226.734 143.824 225.118 143.765 223.522 143.71L223.246 143.779C223.949 145.789 226.154 145.744 227.12 147.527Z" fill="white"/>
<path d="M179.652 151.638L179.656 151.647C179.683 151.596 179.71 151.546 179.737 151.495L179.652 151.638Z" fill="#E6E6E6"/>
<path d="M177.952 154.873C177.581 155.535 177.262 156.223 176.998 156.933C176.648 158.082 176.417 159.262 176.307 160.457C176.22 161.136 176.194 162.003 176.626 162.334C176.751 162.415 176.901 162.449 177.049 162.43C177.197 162.41 177.332 162.338 177.43 162.227C177.67 161.977 177.867 161.689 178.012 161.376C178.863 159.936 179.524 158.395 179.978 156.79C180.392 155.1 180.388 153.11 179.656 151.647C179.088 152.722 178.52 153.798 177.952 154.873Z" fill="white"/>
<path d="M161.55 68.6888C161.82 68.9483 162.161 69.1244 162.532 69.1956C162.903 69.2667 163.286 69.2296 163.636 69.089C164.36 68.778 165.024 68.3469 165.599 67.8146C166.075 67.4682 166.479 67.035 166.789 66.5386C166.959 66.242 167.068 65.9152 167.11 65.5769C167.152 65.2386 167.125 64.8955 167.032 64.5674C166.763 63.7946 166.081 63.5356 165.479 63.3602C164.516 63.0794 163.553 62.7986 162.589 62.5178L163.286 61.9004C162.569 61.5222 161.776 62.2241 161.328 63.0932C161.041 63.6606 160.84 64.2668 160.733 64.8919C160.494 66.256 160.728 67.8804 161.55 68.6888Z" fill="#E6E6E6"/>
<path d="M178.557 63.0765C178.829 63.3708 179.204 63.5524 179.607 63.5846C180.009 63.6168 180.41 63.4972 180.726 63.25C180.998 63.049 181.224 62.7938 181.39 62.5012C181.555 62.2086 181.656 61.885 181.685 61.5516C181.753 60.8067 181.379 59.9789 180.844 59.9146L180.966 59.2172C179.935 59.0342 178.667 58.9976 178.114 60.228C177.928 60.6994 177.871 61.2105 177.949 61.7104C178.026 62.2103 178.236 62.6813 178.557 63.0765Z" fill="#E6E6E6"/>
<path d="M176.285 25.9922C170.242 25.3221 164.176 27.0392 159.421 30.7657C154.666 34.4922 151.611 39.9229 150.929 45.863C149.51 58.2327 156.14 85.0937 168.227 96.2131C173.918 74.9093 193.862 62.2731 196.5 50.9159C199.32 38.7802 188.869 27.3875 176.285 25.9922Z" fill="#6C63FF"/>
<path d="M172.106 53.4912C176.236 53.4912 179.584 50.2002 179.584 46.1404C179.584 42.0807 176.236 38.7896 172.106 38.7896C167.976 38.7896 164.627 42.0807 164.627 46.1404C164.627 50.2002 167.976 53.4912 172.106 53.4912Z" fill="white"/>
<path d="M164.243 106.812C166.948 106.812 169.141 104.656 169.141 101.997C169.141 99.3383 166.948 97.1827 164.243 97.1827C161.538 97.1827 159.345 99.3383 159.345 101.997C159.345 104.656 161.538 106.812 164.243 106.812Z" fill="#6C63FF"/>
<path opacity="0.2" d="M178.293 40.8739C179.135 41.3711 179.869 42.0264 180.453 42.8024C181.037 43.5784 181.46 44.4598 181.697 45.3965C181.935 46.3331 181.983 47.3066 181.837 48.2613C181.692 49.216 181.357 50.1332 180.851 50.9606C180.346 51.788 179.679 52.5094 178.889 53.0836C178.1 53.6577 177.203 54.0734 176.25 54.307C174.326 54.7785 172.29 54.4794 170.59 53.4752C172.323 53.8543 174.137 53.6146 175.707 52.799C177.277 51.9835 178.5 50.6454 179.158 49.0242C179.816 47.403 179.866 45.6046 179.298 43.9508C178.73 42.297 177.582 40.8958 176.059 39.998C176.847 40.1696 177.602 40.4654 178.293 40.8739Z" fill="#231F20"/>
<path opacity="0.2" d="M196.53 50.9396C193.891 62.2968 173.947 74.9331 168.256 96.2368C167.119 95.1811 166.064 94.0441 165.097 92.8352C171.493 72.8103 190.195 60.6424 192.745 49.6693C195.026 39.8481 188.616 30.5144 179.419 26.5716C190.553 29.3228 199.114 39.8185 196.53 50.9396Z" fill="#231F20"/>
<path d="M106.207 54.6739C101.669 54.1707 97.1129 55.4602 93.542 58.2587C89.9711 61.0571 87.6774 65.1354 87.1655 69.5962C86.0995 78.8854 91.0781 99.0571 100.155 107.407C104.429 91.409 119.406 81.9196 121.388 73.3907C123.505 64.2773 115.657 55.7217 106.207 54.6739Z" fill="#6C63FF"/>
<path d="M103.068 75.3247C106.17 75.3247 108.684 72.8533 108.684 69.8045C108.684 66.7558 106.17 64.2843 103.068 64.2843C99.9665 64.2843 97.4522 66.7558 97.4522 69.8045C97.4522 72.8533 99.9665 75.3247 103.068 75.3247Z" fill="white"/>
<path d="M97.1632 115.367C99.1947 115.367 100.841 113.748 100.841 111.751C100.841 109.754 99.1947 108.136 97.1632 108.136C95.1317 108.136 93.4849 109.754 93.4849 111.751C93.4849 113.748 95.1317 115.367 97.1632 115.367Z" fill="#6C63FF"/>
<path opacity="0.2" d="M107.715 65.8496C108.347 66.223 108.898 66.7151 109.337 67.2978C109.775 67.8805 110.093 68.5425 110.271 69.2459C110.45 69.9493 110.485 70.6803 110.376 71.3972C110.267 72.1142 110.016 72.803 109.636 73.4243C109.256 74.0457 108.755 74.5874 108.162 75.0186C107.57 75.4498 106.896 75.762 106.181 75.9373C105.465 76.1127 104.721 76.1478 103.992 76.0406C103.263 75.9335 102.562 75.6861 101.93 75.3128C103.231 75.5974 104.594 75.4173 105.773 74.8049C106.951 74.1925 107.87 73.1876 108.364 71.9702C108.858 70.7527 108.896 69.4022 108.469 68.1602C108.043 66.9183 107.181 65.8661 106.037 65.1918C106.629 65.3207 107.195 65.5428 107.715 65.8496Z" fill="#231F20"/>
<path opacity="0.2" d="M121.41 73.4086C119.428 81.9375 104.451 91.4268 100.177 107.425C99.3236 106.632 98.5307 105.779 97.8052 104.871C102.608 89.8327 116.652 80.6951 118.567 72.4546C120.281 65.0792 115.467 58.07 108.56 55.109C116.921 57.1751 123.35 65.057 121.41 73.4086Z" fill="#231F20"/>
<path d="M282.028 254.646H275.862L272.928 231.268L282.029 231.268L282.028 254.646Z" fill="#A0616A"/>
<path d="M285.345 266.154H280.97L280.189 262.094L278.188 266.154H266.584C266.028 266.154 265.486 265.98 265.038 265.656C264.59 265.332 264.259 264.875 264.094 264.353C263.928 263.831 263.937 263.271 264.118 262.754C264.299 262.237 264.644 261.791 265.102 261.48L274.369 255.189V251.084L284.116 251.656L285.345 266.154Z" fill="#2F2E41"/>
<path d="M258.145 254.646H251.979L249.046 231.268L258.146 231.268L258.145 254.646Z" fill="#A0616A"/>
<path d="M261.462 266.154H257.087L256.306 262.094L254.306 266.154H242.701C242.145 266.154 241.603 265.98 241.155 265.656C240.707 265.332 240.376 264.875 240.211 264.353C240.045 263.831 240.054 263.271 240.235 262.754C240.417 262.237 240.761 261.791 241.219 261.48L250.486 255.189V251.084L260.233 251.656L261.462 266.154Z" fill="#2F2E41"/>
<path d="M234.72 192.922C235.9 194.662 248.737 242.489 248.737 242.489L260.119 243.765L258.768 231.732L256.703 210.436L253.505 196.222C253.505 196.222 264.797 170.96 265.511 168.948L266.019 167.504L269.547 198.977C269.966 200.101 270.149 201.296 270.084 202.491C269.977 204.457 271.983 234.034 271.983 234.034L272.948 244.641L282.7 245.973L286.656 227.62C289.96 221.658 288.066 200.473 286.715 198.501C285.364 196.529 285.901 182.797 285.901 182.797C287.626 182.2 297.914 147.716 292.769 147.919C293.099 146.081 293.359 144.44 293.359 144.44L284.426 137.359L262.072 131.646L256.432 128.984C256.432 128.984 246.359 147.293 246.459 148.204C246.598 149.357 246.329 150.522 245.698 151.503L235.528 184.96C235.528 184.96 233.528 191.165 234.72 192.922Z" fill="#2F2E41"/>
<path d="M290.882 73.2025L287.326 65.7805L275.222 66.2378L271.273 73.9592C271.273 73.9592 259.99 87.2062 259.625 91.5136C259.166 96.931 262.983 123.482 259.166 121.761C259.166 121.761 250.166 132.145 255.492 132.145C260.817 132.145 284.905 147.008 286.486 148.68C288.066 150.351 295.122 151.435 294.53 147.946C293.939 144.456 290.882 125.583 290.882 125.583L299.158 95.9077C301.539 89.5007 302.28 82.3141 296.897 78.0104L290.882 73.2025Z" fill="#CCCCCC"/>
<path d="M246.047 51.3576C244.428 50.7259 242.698 50.4138 240.957 50.4392C239.215 50.4646 237.496 50.8269 235.896 51.5055C234.297 52.1842 232.849 53.1658 231.636 54.3943C230.423 55.6228 229.468 57.0742 228.825 58.6657C226.122 65.3585 225.674 81.3415 230.704 89.352C237.171 78.3096 250.255 74.2323 253.482 68.2865C256.93 61.9332 252.856 54.0143 246.047 51.3576Z" fill="#6C63FF"/>
<path d="M240.602 66.2327C242.992 66.2327 244.928 64.329 244.928 61.9805C244.928 59.6321 242.992 57.7283 240.602 57.7283C238.213 57.7283 236.277 59.6321 236.277 61.9805C236.277 64.329 238.213 66.2327 240.602 66.2327Z" fill="white"/>
<path d="M227.587 94.7712C229.151 94.7712 230.42 93.5243 230.42 91.9861C230.42 90.4479 229.151 89.201 227.587 89.201C226.022 89.201 224.753 90.4479 224.753 91.9861C224.753 93.5243 226.022 94.7712 227.587 94.7712Z" fill="#6C63FF"/>
<path opacity="0.2" d="M244.87 59.9642C245.662 60.7786 246.093 61.869 246.068 62.9957C246.044 64.1224 245.565 65.1933 244.737 65.9732C243.909 66.753 242.8 67.1779 241.654 67.1545C240.508 67.1312 239.418 66.6615 238.624 65.8486C239.533 66.3188 240.582 66.4557 241.584 66.2347C242.587 66.0138 243.476 65.4494 244.094 64.6427C244.711 63.8359 245.017 62.8395 244.955 61.8316C244.894 60.8238 244.469 59.8703 243.758 59.1419C244.171 59.3553 244.547 59.6329 244.87 59.9642Z" fill="#231F20"/>
<path opacity="0.2" d="M253.495 68.3041C250.268 74.2499 237.184 78.3272 230.717 89.3696C230.245 88.6106 229.831 87.8184 229.479 86.9994C236.141 76.776 248.46 72.7748 251.578 67.0302C254.369 61.8886 252.232 55.722 247.707 52.1486C253.497 55.3458 256.655 62.482 253.495 68.3041Z" fill="#231F20"/>
<path d="M226.31 91.0271C226.968 90.8936 227.649 90.9038 228.303 91.0568C228.957 91.2098 229.569 91.5019 230.096 91.9126C230.623 92.3233 231.052 92.8426 231.353 93.4339C231.654 94.0252 231.819 94.6741 231.837 95.3349L241.651 99.0378L240.816 105.449L227.032 100.028C225.9 99.9845 224.825 99.5342 224.008 98.7628C223.192 97.9914 222.692 96.9525 222.603 95.843C222.514 94.7334 222.842 93.6303 223.526 92.7427C224.209 91.8551 225.199 91.2447 226.31 91.0271L226.31 91.0271Z" fill="#A0616A"/>
<path d="M294.883 77.8153C293.85 77.1952 292.702 76.7818 291.506 76.5986C290.31 76.4155 289.088 76.4663 287.912 76.7481C286.736 77.03 285.628 77.5373 284.652 78.2409C283.675 78.9446 282.85 79.8308 282.223 80.8488L268.136 103.715L236.287 96.2937L233.385 104.124L274.172 123.115L294.829 90.7738C297.922 86.5016 299.436 80.5475 294.883 77.8153Z" fill="#CCCCCC"/>
<path d="M295.409 49.7925C295.41 51.9963 294.86 54.1667 293.809 56.113C292.757 58.0594 291.235 59.7222 289.377 60.9555C287.519 62.1888 285.381 62.9549 283.152 63.1866C280.922 63.4182 278.669 63.1084 276.589 62.2841C274.51 61.4599 272.668 60.1465 271.226 58.4593C269.784 56.7721 268.784 54.7627 268.317 52.6073C267.849 50.452 267.926 48.2167 268.542 46.0977C269.158 43.9787 270.294 42.0407 271.85 40.454L271.916 40.3894C272.025 40.2763 272.135 40.1632 272.25 40.0554C272.251 40.0555 272.252 40.0553 272.252 40.0551C272.253 40.0548 272.254 40.0544 272.254 40.0539C272.255 40.0534 272.255 40.0528 272.255 40.0521C272.255 40.0515 272.256 40.0508 272.256 40.0501C272.398 39.9208 272.54 39.7916 272.688 39.6677C274.668 37.962 277.105 36.8532 279.709 36.4741C282.313 36.0949 284.972 36.4614 287.37 37.5296C289.767 38.5979 291.8 40.3228 293.226 42.4976C294.652 44.6724 295.41 47.2051 295.409 49.7924V49.7925Z" fill="#2F2E41"/>
<path d="M278.337 64.1975C284.681 64.1975 289.823 59.1428 289.823 52.9076C289.823 46.6723 284.681 41.6177 278.337 41.6177C271.994 41.6177 266.852 46.6723 266.852 52.9076C266.852 59.1428 271.994 64.1975 278.337 64.1975Z" fill="#9E616A"/>
<path d="M290.534 56.1273L288.631 55.7968C287.568 55.6069 286.589 55.1023 285.825 54.3506C285.061 53.5989 284.549 52.6359 284.358 51.5904L282.501 54.6495L282.42 54.6759C277.995 56.1198 273.392 55.688 268.35 53.3575C266.909 52.6853 265.51 51.9273 264.162 51.0878L264.063 51.0268L264.055 50.9119C263.798 47.2392 264.636 44.171 266.416 42.2723C267.1 41.558 267.929 40.9937 268.85 40.6164C269.77 40.2391 270.762 40.0573 271.759 40.0829C271.83 40.0647 271.895 40.0293 271.949 39.98C271.975 39.9615 272 39.9432 272.026 39.9258V39.9068L272.158 39.8458C272.441 39.7148 272.73 39.5894 273.019 39.4748C275.291 38.61 277.766 38.393 280.159 38.8489C282.551 39.3047 284.764 40.4148 286.544 42.0517C290.082 45.3717 291.704 50.9433 290.582 55.9163L290.534 56.1273Z" fill="#2F2E41"/>
<path d="M314.76 65.7463C310.851 63.7633 315.878 56.5663 314.868 52.3583C313.858 48.1504 306.584 46.7969 306.12 42.4975C305.657 38.198 304.567 33.7636 301.681 30.5012C299.836 28.4165 297.119 26.8775 294.321 27.1386C293.374 27.2269 292.458 27.5148 291.634 27.9826C290.811 28.4504 290.1 29.0871 289.55 29.8494C288.999 30.6116 288.622 31.4815 288.445 32.3999C288.267 33.3182 288.293 34.2633 288.521 35.1709C287.724 34.0614 285.662 34.3018 285.152 35.5639C284.698 36.6859 285.701 38.045 286.88 38.1443C288.424 40.0178 290.191 42.0061 292.609 42.3841C292.994 42.4711 293.395 42.4708 293.78 42.3834C294.165 42.2961 294.525 42.1238 294.832 41.8797C295.401 41.3427 295.445 40.2691 294.771 39.8679C297.809 41.0543 299.591 44.2838 300.042 47.467C300.492 50.6503 299.869 53.8711 299.458 57.0595C299.047 60.2479 298.87 63.602 300.141 66.5629C301.644 70.0611 305.104 72.5684 308.879 73.3725C312.655 74.1766 316.676 73.3907 320.093 71.6202C323.511 69.8495 326.361 67.1465 328.689 64.1161C324.679 66.9152 319.13 67.9639 314.76 65.7463Z" fill="#2F2E41"/>
<path d="M290.045 55.8134C290.045 55.8134 286.643 43.3299 272.058 40.4486C272.042 40.4433 271.987 40.4217 271.916 40.3895C271.872 40.3625 271.817 40.3355 271.762 40.3086C271.927 40.2171 272.086 40.1363 272.25 40.0555C272.251 40.0555 272.252 40.0554 272.252 40.0551C272.253 40.0548 272.253 40.0544 272.254 40.0539C272.255 40.0534 272.255 40.0528 272.255 40.0522C272.255 40.0515 272.256 40.0508 272.256 40.0501C272.398 39.9208 272.54 39.7916 272.688 39.6677L273.105 39.6839C273.105 39.6839 287.739 37.4059 290.045 55.8134Z" fill="#FD6584"/>
<path opacity="0.2" d="M282.428 95.87L274.191 105.251L260.58 101.3L275.418 108.021L282.428 95.87Z" fill="black"/>
<path d="M331.87 266.861L205.223 267C205.079 267 204.94 266.943 204.838 266.842C204.735 266.741 204.678 266.605 204.678 266.462C204.678 266.32 204.735 266.184 204.838 266.083C204.94 265.982 205.079 265.925 205.223 265.925L331.87 265.786C332.015 265.786 332.154 265.843 332.257 265.944C332.359 266.044 332.417 266.181 332.417 266.324C332.417 266.466 332.359 266.603 332.257 266.704C332.154 266.805 332.015 266.861 331.87 266.861Z" fill="#CACACA"/>
<path d="M337.429 183.324C331.499 183.324 324.999 183.104 317.93 182.663C281.365 180.381 234.002 172.445 184.565 160.319C135.129 148.194 89.5262 133.325 56.157 118.454C39.9019 111.209 27.4261 104.352 19.0768 98.0717C10.2369 91.4231 6.37028 85.6278 7.58374 80.8474C9.94812 71.5343 30.8835 69.4968 48.0299 69.4276L48.0357 70.782C24.4893 70.877 10.598 74.5682 8.92078 81.1754C6.78427 89.5906 24.2087 102.728 56.726 117.22C90.0219 132.059 135.541 146.899 184.899 159.006C234.257 171.112 281.533 179.034 318.017 181.311C353.648 183.536 375.309 179.985 377.446 171.57C379.219 164.583 367.526 154.29 344.52 142.587L345.153 141.384C361.87 149.888 381.274 162.084 378.783 171.898C377.569 176.678 371.386 180.008 360.404 181.795C354.145 182.813 346.456 183.324 337.429 183.324Z" fill="#6C63FF"/>
</g>
<defs>
<clipPath id="clip0_3_100">
<rect width="379" height="267" fill="white"/>
</clipPath>
</defs>
</svg>
