<svg width="428" height="264" viewBox="0 0 428 264" fill="none" xmlns="http://www.w3.org/2000/svg">
<g clip-path="url(#clip0_21_228)">
<path d="M46.4931 186.176C44.6441 186.382 42.627 186.692 40.4814 187.145C31.3838 189.067 31.1949 195.476 31.2747 196.945L31.2129 196.905C30.2981 198.428 29.7252 199.968 29.3789 201.422L28.9623 181.781C29.2317 181.198 29.4768 180.537 29.6811 179.86C30.3621 182.035 31.4785 184.091 32.4407 183.955C33.692 183.777 34.2376 179.958 34.0042 177.243C35.5953 179.369 38.2733 181.643 39.2835 180.942C40.0908 180.382 39.6121 178.075 38.7308 175.979C40.5671 177.126 42.601 177.881 43.2321 177.152C44.0933 176.157 42.0296 172.764 40.1265 170.87C42.674 171.116 45.9139 170.695 46.1264 169.492C46.3014 168.501 44.3731 167.251 42.3092 166.446C44.3822 165.879 46.3208 164.891 46.2565 163.913C46.1801 162.752 43.302 161.974 40.8191 161.856C42.6919 160.336 44.4127 158.234 43.8864 157.284C43.4026 156.41 41.1521 156.749 39.0757 157.518C40.3045 155.696 41.1684 153.642 40.5104 152.939C39.6909 152.064 36.7821 153.575 34.797 155.245C35.1835 152.643 34.9881 149.358 33.8631 149.061C32.9219 148.813 31.588 150.723 30.6735 152.805C30.2693 150.62 29.451 148.547 28.5066 148.547C27.1613 148.547 26.0708 152.755 26.0708 155.496C26.0708 155.651 26.0747 155.797 26.0815 155.936C25.9465 155.774 25.7918 155.604 25.6153 155.426C23.7196 153.516 20.05 151.397 19.1127 152.398C18.4548 153.101 19.3187 155.154 20.5475 156.977C18.4711 156.207 16.2205 155.869 15.7367 156.743C15.0867 157.916 17.8653 160.847 20.1239 162.268C19.9881 162.251 19.8455 162.237 19.6937 162.226C17.0573 162.039 12.9363 162.882 12.8447 164.274C12.7804 165.252 14.719 166.24 16.792 166.807C14.7281 167.612 12.7998 168.862 12.9748 169.853C13.1873 171.056 16.4272 171.477 18.9747 171.231C17.0716 173.125 15.0079 176.518 15.8691 177.513C16.5002 178.242 18.5341 177.487 20.3704 176.34C19.4891 178.436 19.0104 180.743 19.8177 181.303C20.8845 182.043 23.8103 179.467 25.3529 177.249C25.1957 179.962 25.8213 183.688 27.0626 183.835C27.5817 183.897 28.1318 183.322 28.6282 182.438L27.2222 203.551C26.8936 206.009 28.9958 207.614 29.1837 208.627L29.487 222.924C29.1447 221.905 28.6837 220.863 28.0623 219.829L28.0005 219.869C28.0802 218.4 27.8913 211.991 18.7938 210.069C16.6482 209.616 14.6311 209.306 12.782 209.1C10.5994 208.856 9.74807 211.956 11.7198 212.957C14.5752 214.407 17.2613 216.234 18.6613 218.397C22.2407 223.928 27.1864 220.731 27.8896 220.234C28.675 221.591 29.19 222.957 29.5153 224.257L29.6763 231.85C29.6369 232.03 29.6096 232.13 29.6074 232.138L29.6829 232.161L30.0727 250.535L33.6881 250.505L32.3949 231.724C32.6122 230.71 33.2807 227.259 32.3949 223.674L31.1017 208.917C31.0985 208.906 31.1751 209.304 31.1017 208.917L29.4149 203.118C29.6602 201.325 30.2294 199.307 31.3856 197.31C32.0887 197.807 37.0344 201.004 40.6138 195.473C42.0139 193.31 44.6999 191.483 47.5554 190.033C49.5271 189.032 48.6757 185.932 46.4931 186.176L46.4931 186.176ZM29.9776 229.65L29.9095 226.437C30.0469 227.652 30.04 228.749 29.9776 229.65Z" fill="#F2F2F2"/>
<path d="M0 251.412C0 251.813 0.310048 252.134 0.696141 252.134H427.304C427.69 252.134 428 251.813 428 251.412C428 251.012 427.69 250.69 427.304 250.69H0.696141C0.310048 250.69 0 251.012 0 251.412Z" fill="#3F3D56"/>
<path d="M258.892 252.053C276.338 252.053 290.48 237.381 290.48 219.282C290.48 201.184 276.338 186.512 258.892 186.512C241.447 186.512 227.304 201.184 227.304 219.282C227.304 237.381 241.447 252.053 258.892 252.053Z" fill="#3F3D56"/>
<path d="M258.892 241.129C270.523 241.129 279.951 231.348 279.951 219.282C279.951 207.217 270.523 197.436 258.892 197.436C247.262 197.436 237.834 207.217 237.834 219.282C237.834 231.348 247.262 241.129 258.892 241.129Z" fill="white"/>
<path d="M258.892 231.723C265.515 231.723 270.884 226.153 270.884 219.282C270.884 212.412 265.515 206.842 258.892 206.842C252.27 206.842 246.901 212.412 246.901 219.282C246.901 226.153 252.27 231.723 258.892 231.723Z" fill="#3F3D56"/>
<path d="M76.3839 252.053C93.8295 252.053 107.972 237.381 107.972 219.282C107.972 201.184 93.8295 186.512 76.3839 186.512C58.9383 186.512 44.7959 201.184 44.7959 219.282C44.7959 237.381 58.9383 252.053 76.3839 252.053Z" fill="#3F3D56"/>
<path d="M76.3839 241.129C88.0143 241.129 97.4425 231.348 97.4425 219.282C97.4425 207.217 88.0143 197.436 76.3839 197.436C64.7535 197.436 55.3252 207.217 55.3252 219.282C55.3252 231.348 64.7535 241.129 76.3839 241.129Z" fill="white"/>
<path d="M302.105 203.697C297.99 192.939 283.611 160.066 258.007 149.186C257.81 149.102 257.603 149.045 257.392 149.014L175.26 136.809C173.906 136.608 172.647 137.568 172.428 138.968L170.988 148.192C170.89 148.825 171.018 149.473 171.353 150.013C175.524 156.726 202.256 202.29 159.449 202.29C117.314 202.29 104.843 170.507 102.97 164.899C102.794 164.369 102.786 163.799 102.949 163.264L115.926 120.632C116.157 119.874 116.029 119.097 115.657 118.476L121.361 107.485L131.81 113.621L137.22 113.69L155.688 123.703L159.449 117.331L121.361 97.6222C121.361 97.6222 121.426 93.0564 109.142 89.4153L89.8381 80.3124L87.4982 83.3467L93.3478 88.2016L93.9328 91.8427L98.0275 93.0564L106.217 109.442L103.877 114.136L106.717 115.573L105.902 115.381C104.727 115.104 103.529 115.732 103.047 116.877L90.1408 147.56C89.9434 148.03 89.6167 148.428 89.2018 148.706L84.6045 151.783C84.1749 152.071 83.8403 152.488 83.6454 152.978L78.3946 166.191C78.2309 166.603 78.1842 167.034 78.2265 167.452C71.6808 168.739 52.4388 174.296 41.8711 196.222L54.1553 206.538C54.1553 206.538 73.4111 193.613 105.235 207.073C110.766 216.005 118.836 223.417 130.487 224.116C161.204 225.958 212.095 227.778 217.945 220.496C222.227 215.165 225.206 211.836 226.495 210.435C226.949 209.942 227.569 209.656 228.227 209.635L299.855 207.261C301.593 207.203 302.746 205.374 302.105 203.697Z" fill="#536DFE"/>
<path d="M104.462 108.228C109.631 108.228 113.822 103.881 113.822 98.5181C113.822 93.1556 109.631 88.8084 104.462 88.8084C99.2931 88.8084 95.1028 93.1556 95.1028 98.5181C95.1028 103.881 99.2931 108.228 104.462 108.228Z" fill="#3F3D56"/>
<path d="M254.35 149.223C254.239 149.223 254.128 149.221 254.016 149.217L175.76 146.074C172.297 145.935 169.331 143.648 168.204 140.248L167.133 137.014C166.259 134.377 166.639 131.553 168.175 129.265C169.711 126.978 172.133 125.629 174.819 125.564L255.671 123.636C258.175 123.577 260.585 124.689 262.219 126.69C263.853 128.691 264.519 131.317 264.046 133.894L262.522 142.198C261.765 146.317 258.357 149.223 254.35 149.223H254.35Z" fill="#3F3D56"/>
<path d="M76.3838 231.723C83.0067 231.723 88.3756 226.153 88.3756 219.282C88.3756 212.412 83.0067 206.842 76.3838 206.842C69.761 206.842 64.3921 212.412 64.3921 219.282C64.3921 226.153 69.761 231.723 76.3838 231.723Z" fill="#3F3D56"/>
<path d="M285.788 183.864C283.915 183.864 282.132 182.824 281.181 181.039L275.253 169.91C274.313 168.147 274.367 166.075 275.396 164.367C276.425 162.658 278.202 161.694 280.136 161.804L290.891 162.376C292.893 162.483 294.693 163.789 295.475 165.707L298.618 173.412C299.193 174.823 299.178 176.37 298.578 177.769C297.977 179.168 296.877 180.213 295.482 180.713L287.512 183.563C286.943 183.767 286.362 183.864 285.788 183.864Z" fill="#3F3D56"/>
<path d="M149.756 257.834C149.667 257.834 149.577 257.828 149.487 257.818L147.098 257.543C146.318 257.453 145.643 256.998 145.245 256.295C144.847 255.593 144.794 254.759 145.099 254.008L157.522 223.399L157.791 223.517L157.522 223.399C157.863 222.559 158.616 221.967 159.488 221.854C160.336 221.742 161.164 222.088 161.703 222.774C162.243 223.46 162.403 224.37 162.13 225.209L152.095 256.094C151.757 257.136 150.799 257.834 149.756 257.834Z" fill="#3F3D56"/>
<path d="M214.258 44.2288C214.258 44.2288 209.713 34.7988 210.622 26.3117L195.495 34.4457L196.078 49.8868L214.258 44.2288Z" fill="#A0616A"/>
<path d="M204.871 38.8011C212.407 38.8011 218.516 32.4633 218.516 24.6452C218.516 16.8271 212.407 10.4893 204.871 10.4893C197.335 10.4893 191.225 16.8271 191.225 24.6452C191.225 32.4633 197.335 38.8011 204.871 38.8011Z" fill="#A0616A"/>
<path d="M218.809 246.946L210.482 246.945L206.521 213.627L218.811 213.628L218.809 246.946Z" fill="#A0616A"/>
<path d="M190.281 246.75C190.022 247.203 189.885 248.665 189.885 249.192C189.885 250.811 191.15 252.124 192.711 252.124H218.498C219.562 252.124 220.425 251.229 220.425 250.124V249.01C220.425 249.01 221.701 245.663 219.075 241.537C219.075 241.537 215.811 244.768 210.933 239.708L209.495 237.004L199.084 244.904L193.313 245.641C192.05 245.802 190.931 245.616 190.281 246.75H190.281Z" fill="#2F2E41"/>
<path d="M194.26 44.2288L214.258 41.3998L229.71 48.9438L230.619 107.41C230.619 107.41 192.607 112.125 186.616 105.996C180.625 99.866 185.17 50.8298 185.17 50.8298L194.26 44.2288Z" fill="#E6E6E6"/>
<path d="M201.458 28.2514H197.789C197.789 28.2514 194.607 24.1871 195.035 26.6635C195.463 29.1399 193.75 31.8051 193.75 31.8051L191.181 30.9167C191.181 30.9167 186.043 8.50324 201.458 7.27204C216.872 6.04083 220.298 18.4788 220.298 18.4788C220.298 18.4788 219.441 24.6977 217.729 22.9209C216.016 21.144 206.596 20.2556 206.596 20.2556L201.458 28.2514V28.2514Z" fill="#2F2E41"/>
<path d="M185.002 180.979L177.387 184.472L160.773 155.663L172.012 150.507L185.002 180.979Z" fill="#A0616A"/>
<path d="M158.836 192.771C158.775 193.294 159.22 194.689 159.426 195.17C160.057 196.651 161.726 197.321 163.153 196.666L186.736 185.845C187.71 185.398 188.15 184.217 187.719 183.206L187.285 182.188C187.285 182.188 187.146 178.591 183.136 175.92C183.136 175.92 181.41 180.244 174.977 177.664L172.607 175.795L166.166 187.388L161.176 190.484C160.084 191.161 158.988 191.461 158.836 192.771L158.836 192.771H158.836Z" fill="#2F2E41"/>
<path d="M227.892 101.752L230.619 110.306V139.71L221.712 166.348L222.439 228.456H206.456L204.653 165.104L206.077 133.814L195.169 129.099L166.518 130.934L179.917 165.104L165.173 175.306C165.173 175.306 143.121 123.17 146.42 118.119C149.72 113.068 188.352 104.158 188.352 104.158C188.352 104.158 227.892 102.695 227.892 101.752V101.752Z" fill="#2F2E41"/>
<path d="M236.073 67.8039L240.468 75.2709C240.468 75.2709 246.68 100.603 240.468 100.706C234.255 100.809 221.712 87.7963 221.712 87.7963L223.347 81.006L227.892 82.892L226.983 67.8039H236.073V67.8039Z" fill="#A0616A"/>
<path d="M222.438 48.825C222.438 48.825 236.982 46.1668 238.346 56.0423C239.709 65.9179 240.468 75.2709 240.468 75.2709L224.711 76.6251L222.438 48.825V48.825Z" fill="#E6E6E6"/>
<path d="M225.595 86.9659C226.91 85.0507 224.983 81.2868 221.291 78.5588C217.599 75.8308 213.54 75.1719 212.225 77.087C210.91 79.0021 212.837 82.7661 216.53 85.4941C220.222 88.222 224.28 88.881 225.595 86.9659Z" fill="#A0616A"/>
<path d="M345.409 186.176C343.56 186.382 341.543 186.692 339.398 187.145C330.3 189.067 330.111 195.476 330.191 196.945L330.129 196.905C329.214 198.428 328.641 199.968 328.295 201.422L327.879 181.781C328.148 181.198 328.393 180.537 328.597 179.86C329.278 182.035 330.395 184.091 331.357 183.955C332.608 183.777 333.154 179.958 332.92 177.243C334.512 179.369 337.19 181.643 338.2 180.942C339.007 180.382 338.528 178.075 337.647 175.979C339.483 177.126 341.517 177.881 342.148 177.152C343.01 176.157 340.946 172.764 339.043 170.87C341.59 171.116 344.83 170.695 345.043 169.492C345.218 168.501 343.289 167.251 341.225 166.446C343.298 165.879 345.237 164.891 345.173 163.913C345.096 162.752 342.218 161.974 339.735 161.856C341.608 160.336 343.329 158.234 342.803 157.284C342.319 156.41 340.068 156.749 337.992 157.518C339.221 155.696 340.085 153.642 339.427 152.939C338.607 152.064 335.698 153.575 333.713 155.245C334.1 152.643 333.904 149.358 332.779 149.061C331.838 148.813 330.504 150.723 329.59 152.805C329.186 150.62 328.367 148.547 327.423 148.547C326.078 148.547 324.987 152.755 324.987 155.496C324.987 155.651 324.991 155.797 324.998 155.936C324.863 155.774 324.708 155.604 324.532 155.426C322.636 153.516 318.966 151.397 318.029 152.398C317.371 153.101 318.235 155.154 319.464 156.977C317.387 156.207 315.137 155.869 314.653 156.743C314.003 157.916 316.782 160.847 319.04 162.268C318.904 162.251 318.762 162.237 318.61 162.226C315.974 162.039 311.853 162.882 311.761 164.274C311.697 165.252 313.635 166.24 315.708 166.807C313.644 167.612 311.716 168.862 311.891 169.853C312.104 171.056 315.343 171.477 317.891 171.231C315.988 173.125 313.924 176.518 314.785 177.513C315.417 178.242 317.45 177.487 319.287 176.34C318.405 178.436 317.927 180.743 318.734 181.303C319.801 182.043 322.727 179.467 324.269 177.249C324.112 179.962 324.738 183.688 325.979 183.835C326.498 183.897 327.048 183.322 327.545 182.438L326.139 203.551C325.81 206.009 327.912 207.614 328.1 208.627L328.403 222.924C328.061 221.905 327.6 220.863 326.979 219.829L326.917 219.869C326.996 218.4 326.808 211.991 317.71 210.069C315.564 209.616 313.547 209.306 311.698 209.1C309.516 208.856 308.664 211.956 310.636 212.957C313.491 214.407 316.178 216.234 317.578 218.397C321.157 223.928 326.103 220.731 326.806 220.234C327.591 221.591 328.106 222.957 328.432 224.257L328.593 231.85C328.553 232.03 328.526 232.13 328.524 232.138L328.599 232.161L328.989 250.535L332.604 250.505L331.311 231.724C331.528 230.71 332.197 227.259 331.311 223.674L330.018 208.917C330.015 208.906 330.091 209.304 330.018 208.917L328.331 203.118C328.576 201.325 329.146 199.307 330.302 197.31C331.005 197.807 335.951 201.004 339.53 195.473C340.93 193.31 343.616 191.483 346.472 190.033C348.443 189.032 347.592 185.932 345.409 186.176V186.176ZM328.894 229.65L328.826 226.437C328.963 227.652 328.956 228.749 328.894 229.65Z" fill="#F2F2F2"/>
<path d="M303.311 248.249L309.595 246.839L307.348 221.021L298.072 223.1L303.311 248.249Z" fill="#A0616A"/>
<path d="M324.812 243.274C325.079 243.572 325.412 244.653 325.495 245.05C325.75 246.272 325.001 247.477 323.823 247.741L304.36 252.104C303.556 252.284 302.764 251.754 302.59 250.92L302.415 250.08C302.415 250.08 300.926 247.769 302.26 244.211C302.26 244.211 305.231 246.097 308.117 241.452L308.778 239.169L317.878 243.37L322.35 242.95C323.328 242.858 324.144 242.528 324.812 243.274L324.812 243.274V243.274Z" fill="#2F2E41"/>
<path d="M314.552 246.273L319.795 242.412L307.936 219.594L300.198 225.292L314.552 246.273Z" fill="#A0616A"/>
<path d="M332.433 232.923C332.791 233.088 333.507 233.946 333.734 234.277C334.431 235.297 334.2 236.71 333.217 237.434L316.979 249.389C316.308 249.883 315.379 249.719 314.903 249.024L314.423 248.322C314.423 248.322 312.178 246.806 312.054 242.99C312.054 242.99 315.502 243.511 316.393 238.063L316.135 235.694L326.094 235.842L330.045 233.63C330.91 233.146 331.535 232.51 332.432 232.923L332.433 232.923Z" fill="#2F2E41"/>
<path d="M239.019 118.624C239.019 118.624 229.241 132.415 248.796 147.919L288.72 134.684L274.462 103.832L261.833 96.6472L239.019 118.624L239.019 118.624Z" fill="#2F2E41"/>
<path d="M288.72 134.684L304.201 165.959L313.978 231.045L301.757 231.891L289.535 170.186L267.943 136.798L283.017 129.613" fill="#2F2E41"/>
<path d="M248.796 138.095V147.919L276.499 179.484C276.499 179.484 276.499 203.151 287.091 214.14L299.312 233.581L309.904 227.664L294.424 171.031L266.721 133.839L248.796 138.095V138.095Z" fill="#2F2E41"/>
<path d="M268.482 40.7021L263.263 61.3428L243.367 57.2823C243.367 57.2823 257.25 42.4331 255.293 35.6656L268.482 40.7021Z" fill="#A0616A"/>
<path d="M253.277 43.8177L265.499 49.7346C265.499 49.7346 271.786 53.7214 271.902 56.377C272.017 59.0326 271.203 71.7117 271.203 71.7117C271.203 71.7117 276.091 76.7833 272.832 86.9265L274.462 103.832L237.797 124.118L241.056 88.6171L239.426 55.6515L253.277 43.8177L253.277 43.8177Z" fill="#3F3D56"/>
<path d="M242.307 140.011C243.738 143.417 246.592 145.412 248.681 144.467C250.771 143.522 251.304 139.995 249.872 136.588C249.318 135.219 248.456 134.007 247.358 133.054L241.119 118.702L234.689 121.883L241.522 135.694C241.448 137.177 241.717 138.658 242.307 140.011H242.307Z" fill="#A0616A"/>
<path d="M248.796 57.7647C248.796 57.7647 239.834 51.8478 236.575 58.61C233.315 65.3721 225.982 100.028 225.982 100.028L236.575 132.994L246.352 128.767L237.797 93.2894L248.796 57.7647V57.7647Z" fill="#3F3D56"/>
<path d="M294.731 134.69C297.271 137.31 300.633 138.073 302.239 136.396C303.846 134.719 303.089 131.237 300.548 128.616C299.547 127.555 298.315 126.758 296.957 126.292L286.06 115.334L281.212 120.748L292.469 130.976C292.926 132.384 293.702 133.657 294.731 134.69Z" fill="#A0616A"/>
<path d="M271.557 55.7483C271.557 55.7483 255.932 55.0853 255.303 62.6175C254.675 70.1496 265.356 103.758 265.356 103.758L286.91 130.357L294.499 122.691L273.947 92.9782L271.557 55.7483Z" fill="#3F3D56"/>
<path d="M256.181 104.755L243.129 63.6533C232.577 54.0074 221.131 77.2319 190.402 64.067L200.067 110.559C223.3 97.5295 243.298 92.4264 256.181 104.755Z" fill="white"/>
<path d="M200.067 111.166C199.984 111.166 199.9 111.147 199.823 111.11C199.655 111.03 199.534 110.874 199.495 110.687L189.83 64.1949C189.785 63.9745 189.86 63.7457 190.027 63.6011C190.194 63.4565 190.424 63.42 190.625 63.506C208.082 70.985 219.349 66.5323 227.575 63.2808C233.829 60.8086 238.767 58.858 243.515 63.1978C243.594 63.2692 243.652 63.3608 243.685 63.4633L256.737 104.565C256.82 104.827 256.722 105.115 256.497 105.265C256.273 105.414 255.979 105.388 255.784 105.201C244.457 94.3617 226.841 96.2329 200.345 111.093C200.258 111.141 200.163 111.166 200.067 111.166H200.067ZM191.206 65.0575L200.475 109.642C225.898 95.5176 243.31 93.3409 254.971 102.885L242.624 64.0017C238.44 60.2853 234.049 62.0211 227.992 64.4151C219.743 67.6749 208.508 72.116 191.206 65.0575V65.0575Z" fill="#3F3D56"/>
<path d="M174.663 68.4107L170.269 75.8777C170.269 75.8777 164.056 101.21 170.269 101.313C176.481 101.416 189.025 88.4032 189.025 88.4032L187.389 81.6128L182.844 83.4988L183.753 68.4107H174.663V68.4107Z" fill="#A0616A"/>
<path d="M188.298 49.4319C188.298 49.4319 173.754 46.7736 172.391 56.6492C171.027 66.5247 170.269 75.8777 170.269 75.8777L186.026 77.2319L188.298 49.4319V49.4319Z" fill="#E6E6E6"/>
<path d="M194.207 86.1009C197.899 83.3729 199.826 79.609 198.512 77.6938C197.197 75.7787 193.138 76.4377 189.446 79.1656C185.754 81.8936 183.827 85.6576 185.141 87.5727C186.456 89.4878 190.515 88.8289 194.207 86.1009Z" fill="#A0616A"/>
<path d="M342.57 256.053C345.297 256.053 347.506 253.761 347.506 250.933C347.506 248.104 345.297 245.812 342.57 245.812C339.844 245.812 337.635 248.104 337.635 250.933C337.635 253.761 339.844 256.053 342.57 256.053Z" fill="#3F3D56"/>
<path d="M349.152 264C351.878 264 354.088 261.707 354.088 258.879C354.088 256.051 351.878 253.759 349.152 253.759C346.426 253.759 344.216 256.051 344.216 258.879C344.216 261.707 346.426 264 349.152 264Z" fill="#3F3D56"/>
<path d="M398.511 264C401.237 264 403.447 261.707 403.447 258.879C403.447 256.051 401.237 253.759 398.511 253.759C395.785 253.759 393.575 256.051 393.575 258.879C393.575 261.707 395.785 264 398.511 264Z" fill="#3F3D56"/>
<path d="M356.382 182.23V126.613C356.382 120.386 361.401 118.848 367.403 118.848C370.344 118.848 371.775 118.493 373.838 120.668C375.9 122.844 378.199 123.747 378.15 126.798L377.287 181.373L356.382 182.23ZM367.988 122.489C362.631 122.489 357.552 121.055 357.552 126.613V180.967L376.135 180.205L376.98 126.778C377.023 124.055 372.754 124.43 370.913 122.489C369.072 120.547 370.613 122.489 367.988 122.489Z" fill="#3F3D56"/>
<path d="M341.691 181.56L340.94 242.325C340.93 243.107 341.11 243.88 341.463 244.571L346.996 255.414C347.81 257.009 349.437 257.975 351.175 257.896L399.764 255.672C402.252 255.558 404.178 253.372 404.065 250.792L401.019 181.408C400.91 178.913 398.928 176.949 396.521 176.949H346.194C343.729 176.949 341.722 179.004 341.691 181.56Z" fill="#E6E6E6"/>
<path d="M360.842 208.983L359.673 208.923L360.107 199.929C360.34 195.085 364.184 191.202 368.858 191.089L389.551 190.59C393.73 190.514 397.189 193.803 397.421 198.135L397.861 206.359L396.693 206.426L396.253 198.203C396.056 194.529 393.102 191.715 389.578 191.804L368.886 192.303C364.821 192.401 361.478 195.777 361.275 199.989L360.842 208.983Z" fill="#3F3D56"/>
<path d="M360.017 252.54L358.853 252.417L361.377 226.891C361.843 222.17 365.64 218.451 370.209 218.239L390.391 217.3C392.933 217.181 395.349 218.115 397.197 219.929C399.045 221.743 400.078 224.195 400.104 226.834L400.33 249.058L399.16 249.071L398.934 226.847C398.911 224.54 398.008 222.396 396.393 220.811C394.777 219.225 392.657 218.408 390.443 218.512L370.262 219.451C366.268 219.637 362.948 222.888 362.54 227.014L360.017 252.54Z" fill="#3F3D56"/>
<path d="M350.971 250.78L349.801 250.764L350.541 192.433C350.591 188.444 353.641 185.228 357.485 185.111L397.26 183.895L397.294 185.109L357.519 186.324C354.304 186.422 351.753 189.113 351.71 192.449L350.971 250.78Z" fill="#3F3D56"/>
<path d="M351.076 242.467H350.262V189.343C350.262 187.662 348.946 186.291 347.32 186.291H342.775V185.077H347.32C349.467 185.077 351.233 186.794 351.415 188.967C351.427 189.088 351.432 189.216 351.432 189.343V214.497L351.076 242.467Z" fill="#3F3D56"/>
<path d="M276.974 29.6669C276.974 37.4444 270.897 43.7492 263.4 43.7492C255.903 43.7492 249.826 37.4444 249.826 29.6669C249.826 21.8895 255.903 15.5846 263.4 15.5846C270.897 15.5846 276.974 21.8895 276.974 29.6669Z" fill="#A0616A"/>
<path d="M262.317 10.7343C262.71 10.9721 263.236 10.6122 263.362 10.1589C263.488 9.70548 263.341 9.22412 263.195 8.77708C262.951 8.02693 262.707 7.27678 262.463 6.52662C261.944 4.93054 261.392 3.27869 260.267 2.06387C258.569 0.230288 255.871 -0.236166 253.442 0.101762C250.322 0.53573 247.244 2.28813 245.794 5.18595C244.343 8.08377 244.961 12.1273 247.582 13.9352C243.847 18.3768 242.544 23.3269 242.75 29.2175C242.956 35.1081 249.143 40.5294 253.179 44.6791C254.08 44.1124 254.899 41.4566 254.403 40.4918C253.908 39.527 254.618 38.4093 254.004 37.5206C253.39 36.6319 252.877 38.0469 253.497 37.1633C253.889 36.6057 252.361 35.3229 252.943 34.9892C255.758 33.375 256.694 29.7351 258.462 26.9477C260.594 23.5856 264.244 21.3088 268.106 20.931C270.234 20.723 272.481 21.0998 274.225 22.3813C275.969 23.6627 277.098 25.9526 276.694 28.1295C277.741 27.0263 278.262 25.4095 278.066 23.8746C277.869 22.3397 276.959 20.9203 275.67 20.1392C276.454 17.4509 275.782 14.3585 273.964 12.2782C272.145 10.1979 264.767 10.5522 262.112 11.0997L262.317 10.7343Z" fill="#2F2E41"/>
<path d="M261.905 21.0127C258.388 21.4065 255.849 24.5669 253.704 27.4855C252.469 29.1677 251.174 31.0254 251.205 33.1403C251.236 35.2784 252.614 37.1124 253.273 39.1387C254.349 42.4508 253.3 46.3915 250.738 48.6609C253.27 49.1594 256.007 47.1899 256.444 44.555C256.953 41.4876 254.712 38.5271 254.977 35.4269C255.211 32.6956 257.286 30.5935 259.05 28.5513C260.813 26.509 262.47 23.7991 261.658 21.1894L261.905 21.0127Z" fill="#2F2E41"/>
</g>
<defs>
<clipPath id="clip0_21_228">
<rect width="428" height="264" fill="white"/>
</clipPath>
</defs>
</svg>
