<svg width="26" height="27" viewBox="0 0 26 27" fill="none" xmlns="http://www.w3.org/2000/svg">
<path d="M23.6226 11.2967H22.75V11.25H13V15.75H19.1225C18.2292 18.3696 15.8291 20.25 13 20.25C9.41037 20.25 6.5 17.2277 6.5 13.5C6.5 9.77231 9.41037 6.75 13 6.75C14.657 6.75 16.1644 7.39912 17.3122 8.45944L20.3764 5.27737C18.4416 3.40481 15.8535 2.25 13 2.25C7.01729 2.25 2.16666 7.28719 2.16666 13.5C2.16666 19.7128 7.01729 24.75 13 24.75C18.9827 24.75 23.8333 19.7128 23.8333 13.5C23.8333 12.7457 23.7586 12.0094 23.6226 11.2967Z" fill="#FFC107"/>
<path d="M3.41575 8.26369L6.97504 10.9744C7.93812 8.49825 10.2705 6.75 13 6.75C14.657 6.75 16.1644 7.39912 17.3122 8.45944L20.3764 5.27737C18.4416 3.40481 15.8535 2.25 13 2.25C8.83892 2.25 5.23033 4.68956 3.41575 8.26369Z" fill="#FF3D00"/>
<path d="M13 24.75C15.7982 24.75 18.3408 23.6379 20.2632 21.8295L16.9103 18.8831C15.7861 19.771 14.4124 20.2512 13 20.25C10.1822 20.25 7.7897 18.3842 6.88837 15.7804L3.35562 18.6069C5.14854 22.2503 8.78962 24.75 13 24.75Z" fill="#4CAF50"/>
<path d="M23.6226 11.2967H22.75V11.25H13V15.75H19.1225C18.6952 16.9967 17.9256 18.0862 16.9087 18.8837L16.9103 18.8826L20.2632 21.8289C20.026 22.0528 23.8333 19.125 23.8333 13.5C23.8333 12.7457 23.7586 12.0094 23.6226 11.2967Z" fill="#1976D2"/>
</svg>
